<?xml version="1.0" encoding="utf-8"?>
<!-- Generator: Adobe Illustrator 22.0.1, SVG Export Plug-In . SVG Version: 6.00 Build 0)  -->
<svg version="1.1" id="Capa_1" xmlns="http://www.w3.org/2000/svg" xmlns:xlink="http://www.w3.org/1999/xlink" x="0px" y="0px"
	 viewBox="0 0 595.3 225.3" style="enable-background:new 0 0 595.3 225.3;" xml:space="preserve">
<style type="text/css">
	.st0{fill:#00A1E4;}
	.st1{fill:#131718;}
	.st2{clip-path:url(#XMLID_3_);}
	.st3{clip-path:url(#XMLID_4_);}
	.st4{fill:#FFFFFF;}
	.st5{clip-path:url(#XMLID_5_);}
</style>
<g id="XMLID_1_">
	<g id="XMLID_264_">
		<path id="XMLID_276_" class="st4" d="M240.5,91.5h-7.5v-5.1h7.5v-6.5c0-7.5,1.5-13.1,11.9-13.1c1.8,0,2.8,0.1,3.9,0.3v5.1
			c-0.9-0.2-1.8-0.3-3-0.3c-4.5,0-6.7,1.7-6.7,8v6.5h9.6v5.1h-9.6v49.3h-6.2V91.5z"/>
		<path id="XMLID_273_" class="st4" d="M265.5,67.6h6.2V78h-6.2V67.6z M265.5,86.3h6.2v54.4h-6.2V86.3z"/>
		<path id="XMLID_271_" class="st4" d="M286,86.3h6.2v38.3c0,8.8,3,12.2,9.4,12.2c7,0,11.9-5.5,11.9-13.9V86.3h6.2v54.4h-5.5v-7.6
			h-0.2c-3.1,6-8.4,8.8-13.9,8.8c-8.3,0-13.9-4.3-13.9-14.6V86.3z"/>
		<path id="XMLID_268_" class="st4" d="M332.9,67.6h6.2v27h0.2c1.3-5.7,5.9-9.4,12.7-9.4c12,0,17.4,9.6,17.4,28.4
			c0,18.9-5.4,28.5-17.4,28.5c-6.5,0-11.7-4-13.3-10.3h-0.2v9h-5.5V67.6z M351,136.9c6.2,0,11.9-3.2,11.9-23.4
			c0-20.1-5.7-23.3-11.9-23.3c-6.3,0-11.9,3.2-11.9,23.3C339.1,133.7,344.7,136.9,351,136.9z"/>
		<path id="XMLID_265_" class="st4" d="M380,102.5c0-11.2,5.3-17.4,16.8-17.4c11.3,0,15.4,5.8,15.4,14.5v32.2c0,3.1,1,4.5,3.2,4.5
			h1.7v4.5c-1.1,0.4-2.1,0.6-2.9,0.6c-4.8,0-7.9-1.1-7.9-6.8v-1.8h-0.2c-2.5,7.2-8,9.2-14,9.2c-9.5,0-13.8-5.9-13.8-15.4
			c0-7.2,3.3-12.9,11-15.1l11.6-3.3c4.3-1.2,5.2-2.3,5.2-8.6c0-7-3.9-9.4-9.4-9.4c-7.3,0-10.5,4.4-10.5,12.3H380z M406,110h-0.2
			c-0.6,1.8-4.1,3-6.6,3.6l-5.1,1.3c-6.2,1.6-9.3,4.8-9.3,11.3c0,6.4,3.3,10.7,8.6,10.7c7.5,0,12.6-5.6,12.6-15.4V110z"/>
	</g>
	<g id="XMLID_254_">
		<path id="XMLID_262_" class="st4" d="M117.4,120.3c0,14.6-8.6,21.7-23,21.7c-14.5,0-22.9-7-22.9-21.7V86.8h11.8v33.5
			c0,5.9,1.5,11.7,11.1,11.7c8.5,0,11.2-3.7,11.2-11.7V86.8h11.8V120.3z"/>
		<path id="XMLID_258_" class="st4" d="M127.6,86.8h25.4c10.3,0,17.2,3.3,17.2,13.4c0,5.3-2.6,9-7.3,11.2c6.6,1.9,9.9,6.9,9.9,13.7
			c0,10.9-9.3,15.6-19,15.6h-26.1V86.8z M139.4,108.6h12c4.2,0,7.2-1.9,7.2-6.4c0-5.1-3.9-6.2-8.1-6.2h-11.1V108.6z M139.4,131.5
			h12.7c4.7,0,8.8-1.5,8.8-7.1c0-5.5-3.5-7.7-8.5-7.7h-12.9V131.5z"/>
		<path id="XMLID_255_" class="st4" d="M195.4,86.8h12.1l20.1,53.9h-12.3l-4.1-12h-20.1l-4.2,12h-12L195.4,86.8z M194.3,119.9h14
			l-6.8-19.8h-0.2L194.3,119.9z"/>
	</g>
	<path id="XMLID_253_" class="st4" d="M64.8,134.2c0,4.1-3.3,7.3-7.3,7.3c-4.1,0-7.4-3.3-7.4-7.3c0-4.1,3.3-7.3,7.4-7.3
		C61.5,126.8,64.8,130.1,64.8,134.2z"/>
	<g id="XMLID_205_">
		<path id="XMLID_251_" class="st4" d="M239,163h10.7v1.6h-8.8v7.9h8.2v1.6h-8.2v10.5H239V163z"/>
		<path id="XMLID_248_" class="st4" d="M256.3,163h2.4l6.4,21.7h-2.1l-1.8-6.3h-7.6l-1.8,6.3h-2.1L256.3,163z M260.9,176.7
			l-3.3-12.2h-0.1l-3.3,12.2H260.9z"/>
		<path id="XMLID_246_" class="st4" d="M280.9,177.3c-0.3,4.9-2.5,7.7-6.4,7.7c-4.4,0-6.9-3.4-6.9-11.2s2.5-11.2,6.9-11.2
			c4.4,0,6.2,3.1,6.2,6.7h-1.9c0-2.9-1.5-5-4.3-5c-3.1,0-5,2.5-5,9.6c0,7,1.9,9.6,5,9.6c2.7,0,4.3-2.3,4.5-6.1H280.9z"/>
		<path id="XMLID_244_" class="st4" d="M284.1,163h1.9v15.6c0,3.2,1.4,4.8,4.2,4.8c2.9,0,4.2-1.6,4.2-4.8V163h1.9v15.6
			c0,4.5-2.2,6.4-6.2,6.4c-4,0-6.2-1.9-6.2-6.4V163z"/>
		<path id="XMLID_242_" class="st4" d="M300.5,163h1.9v20h9v1.6h-10.9V163z"/>
		<path id="XMLID_240_" class="st4" d="M316.1,164.6h-5.6V163h13.1v1.6h-5.6v20h-1.9V164.6z"/>
		<path id="XMLID_237_" class="st4" d="M329.4,163h2.4l6.4,21.7h-2.1l-1.8-6.3h-7.6l-1.8,6.3H323L329.4,163z M334,176.7l-3.3-12.2
			h-0.1l-3.3,12.2H334z"/>
		<path id="XMLID_234_" class="st4" d="M340.8,163h5.2c6.3,0,7.9,3.8,7.9,10.8c0,7.1-1.5,10.8-7.9,10.8h-5.2V163z M342.8,183h3.2
			c4.2,0,6-2.1,6-9.2c0-7.1-1.8-9.2-6-9.2h-3.2V183z"/>
		<path id="XMLID_231_" class="st4" d="M366.2,163h5.2c6.3,0,7.9,3.8,7.9,10.8c0,7.1-1.5,10.8-7.9,10.8h-5.2V163z M368.2,183h3.2
			c4.2,0,6-2.1,6-9.2c0-7.1-1.8-9.2-6-9.2h-3.2V183z"/>
		<path id="XMLID_229_" class="st4" d="M383.4,163h10.7v1.6h-8.8v7.9h8.2v1.6h-8.2v8.9h9.1v1.6h-11V163z"/>
		<path id="XMLID_227_" class="st4" d="M406.1,163h1.9v21.7h-1.9V163z"/>
		<path id="XMLID_225_" class="st4" d="M412.5,163h2.6l8.3,18.9h0.1V163h1.9v21.7h-2.6l-8.3-18.9h-0.1v18.9h-1.9V163z"/>
		<path id="XMLID_223_" class="st4" d="M435.8,175.2v-1.6h6.9v11h-1.5V181h-0.1c-0.7,2.4-2.6,3.9-4.8,3.9c-4.4,0-6.9-3.4-6.9-11.2
			s2.5-11.2,6.9-11.2c4.1,0,6,2.7,6.2,6.4h-1.9c0-2.6-1.4-4.8-4.3-4.8c-3.1,0-5,2.5-5,9.6c0,7,1.9,9.6,5,9.6c2.9,0,4.5-2.6,4.5-7.7
			v-0.5H435.8z"/>
		<path id="XMLID_221_" class="st4" d="M446.9,163h10.7v1.6h-8.8v7.9h8.2v1.6h-8.2v8.9h9.1v1.6h-11V163z"/>
		<path id="XMLID_219_" class="st4" d="M461.3,163h2.6l8.3,18.9h0.1V163h1.9v21.7h-2.6l-8.3-18.9h-0.1v18.9h-1.9V163z"/>
		<path id="XMLID_217_" class="st4" d="M478.6,163h1.9v21.7h-1.9V163z"/>
		<path id="XMLID_215_" class="st4" d="M484.9,163h10.7v1.6h-8.8v7.9h8.2v1.6h-8.2v8.9h9.1v1.6h-11V163z"/>
		<path id="XMLID_212_" class="st4" d="M499.3,163h6.5c3.6,0,5.6,2.1,5.6,5.4c0,2.6-1,4.9-3.9,5.5v0.1c2.7,0.2,3.6,1.8,3.7,5.1
			l0.1,2.4c0,1.2,0.2,2.3,0.9,3.2h-2.3c-0.5-0.8-0.5-1.9-0.6-3l-0.1-1.8c-0.1-3.8-0.8-5-4.3-5h-3.7v9.9h-1.9V163z M501.3,173.1h3.3
			c3.1,0,4.9-1.4,4.9-4.2c0-2.6-1.1-4.2-4.6-4.2h-3.5V173.1z"/>
		<path id="XMLID_209_" class="st4" d="M519.6,157.7l-3,4.3h-1.5l2.3-4.3H519.6z M515.5,163h1.9v21.7h-1.9V163z"/>
		<path id="XMLID_206_" class="st4" d="M526.6,163h2.4l6.4,21.7h-2.1l-1.8-6.3H524l-1.8,6.3h-2.1L526.6,163z M531.1,176.7l-3.3-12.2
			h-0.1l-3.3,12.2H531.1z"/>
	</g>
	<g id="XMLID_186_">
		<g id="XMLID_190_">
			<g id="XMLID_191_">
				<defs>
					<path id="XMLID_192_" d="M433.8,97.2c0,27.4,22.3,49.7,49.7,49.7c27.4,0,49.7-22.3,49.7-49.7c0-27.5-22.3-49.7-49.7-49.7
						C456,47.5,433.8,69.8,433.8,97.2"/>
				</defs>
				<clipPath id="XMLID_3_">
					<use xlink:href="#XMLID_192_"  style="overflow:visible;"/>
				</clipPath>
				<g id="XMLID_193_" class="st2">
					<path id="XMLID_204_" class="st4" d="M509.6,66.5c0.3-3.1-3.2-2.8-3.2-2.8s-1.7-0.1-2.7,3c-1,3,1.8,5.1,1.8,5.1
						C505.4,67.6,509.4,69.7,509.6,66.5z"/>
					<path id="XMLID_197_" class="st4" d="M538.5,91.4L538.5,91.4c0-0.4-0.1-0.7-0.1-1.1C535.5,69.8,521.7,54,510,48.6
						c0,0-10.6-6.7-27.2-6.7c-16.6,0-29.4,9-29.4,9v5l2.4-1.5l5.5-4.2l14-3.8l7.1-1.2l17.3,2.7c0,0,13.3,6.1,5.7,3.5
						c-9.2-3.2-11.8,3.2-11.8,3.2c-0.6-0.9-5.1-2.7-8.6-1.1c-4.9,2.2-5.4,7-3.4,11.4c-6.3-2-14.9,5.2-22,6.9
						c-1.7,0.4-3.1,0.7-4.2,0.8c0.3,0.3,0.6,0.5,1,0.8c2.1,1.8,15.3-4,15.3-4s3.8-1.9,8-2.3c6.2-0.5,3.2,7,3.2,7
						c-1.7-5.1-8.4-2.3-8.4-2.3l-17.1,6c0,0,18,11.9,19.4,12.9c1.4,1,2.9,2.6,2.9,4.2c0,1.6,1.1,3,2.1,3.1c1,0.1,1,0.9,1,0.9
						s-3.6,14,8.6,21.4c9.1,5.4,14.4-5.8,14.5-6.8c9.3,7.2,5,16.6,4.2,18.2v-0.1c0,0-1.6,4.9-6.8,4.4c-5.1-0.5,3.2-2.1-0.5-7.8
						c0,0-1.4-2.8-2.9-0.1c-1.5,2.7-4.2,5.6-7.4,6.1c-2.8,0.5-6-0.5-9-3.5c-3.1-3-8.1-10.3-4.6-19.4c0,0-1-0.6-1.9,0.1
						c-0.8,0.7-5.8,2.4-7.2-4.4c0,0,0.9-0.4,1.2,0.1c0.3,0.5,4.9,1.7,6.6-2.5c2-4.8-2-7-2.3-7.1c-0.3-0.2-3.3-1.4-3.5-5.4
						c-0.1-2-8.5-2.5-8.7-2.3c-0.2,0.1,2.1,1.2,2,1.7c-0.2,0.5-2-0.2-2.2,0.4c-0.2,0.6-1.6,1.7-2.1,1.4c-0.5-0.3-0.4-3.8-1.7-4.2
						c-1.2-0.4-1.3-0.8-2.6-0.4c0,0-1.7,9.7-2.7,12c-0.9,2.3-0.8,3.6,2.7,3.1c0,0,0.7,0,1.1,0.8c0.3,0.6-0.3,2.3,0.9,2.7
						c1.5,0.4,1.4,5,1.4,5.2c0,0.2,1.1,3.6,4.3,3.5c3.2,0,6.3-1,6.8-0.7c0.4,0.2-0.7,11.4-5.6,16c-4.9,4.6-9.6,5.7-12.2,5.8v6.4
						c0,0,13.1,8.9,29.8,8.9c16.7,0,26.9-6.8,26.9-6.8v0C543.3,126.8,538.5,91.4,538.5,91.4z M471.7,75.4c9.4-2.1,6.6,6.4,6.6,6.4
						C469.9,82.9,471.7,75.4,471.7,75.4z M476,85.7c1-2.4,4.6-1.4,4.6-1.4c-0.3-3.9,2.1-4.4,2.1-4.4c2.6-1.1,5.9,5.9,1.7,8.5
						C480.1,91,474.9,88.1,476,85.7z M482,92.2c1.2-2.3,4.7-1.2,4.7-1.2c-0.1-3.9,2.3-4.2,2.3-4.2c2.6-0.9,5.5,6.2,1.2,8.6
						C485.8,97.7,480.7,94.5,482,92.2z M486.5,98.8c1.7-2,4.8-0.1,4.8-0.1c0.8-3.8,3.2-3.6,3.2-3.6c2.7-0.3,3.9,7.3-0.8,8.6
						C489,105.1,484.8,100.8,486.5,98.8z M507.6,100.6c-1.1,0.9-2.5,1.9-3.8,3c-2.6,2.3-2.3,3.2-2.5,4.1c-0.2,1,0.3,3.8-4.3,4.5
						c-4.6,0.7-6.2-4.8-5.7-5.7c0.5-0.9,5.2,0.1,5.2,0.1v-1.3c1.2-0.7,0.6-1.8,0.6-1.8c11-5.1,13.5-14.6,12-21.8
						c-0.8-3.9-2.5-6.7-4.5-8.8c-1.6-1.7-3.9-3-4.9-3.6c-3.7-2.3-11.5-1.4-11.5-1.4c-2.5-1.7-4.4-3.7-5.1-6
						c-0.7-2.1,0.4-4.6,2.4-5.7c1.9-1,3.9-0.8,5.1-0.1c2,1.3,2.7,4.1,2.7,4.1s0.4-4.5,5.1-3.7c5.8,0.9,5,6.3,5,6.3
						c1.1-1.9,3.7-2.1,5.2-1.9c0,0,0,0,0,0c1.2,0.3,1.5,0.7,1.5,0.7s4.1,3.2,1.1,7.9c-2.3,3.6-3.7,2-1.4,6
						C510.7,77.6,516.9,89.4,507.6,100.6z"/>
					<path id="XMLID_196_" class="st4" d="M490.1,59c-2.1-2.4-4.3,0.1-4.3,0.1s-1.3,1.1-0.1,4c1.2,2.9,4.7,2.6,4.7,2.6
						C487.5,62.6,492.2,61.4,490.1,59z"/>
					<path id="XMLID_195_" class="st4" d="M467.2,88.7c0,0-10.7-9.5-10.4-5.4l0,2.3C456.8,85.6,466.2,89.3,467.2,88.7z"/>
					<path id="XMLID_194_" class="st4" d="M496.8,59.2c0,0-1.6,0.5-1.6,3.7c0.1,3.1,3.4,4.2,3.4,4.2c-1.5-3.9,3.3-3.3,2.1-6.4
						C499.7,57.8,496.8,59.2,496.8,59.2z"/>
				</g>
			</g>
		</g>
		<path id="XMLID_187_" class="st4" d="M483.5,50.5c25.8,0,46.7,21,46.7,46.7c0,25.8-21,46.7-46.7,46.7c-25.8,0-46.7-21-46.7-46.7
			C436.7,71.4,457.7,50.5,483.5,50.5 M483.5,47.5c-27.4,0-49.7,22.3-49.7,49.7c0,27.4,22.3,49.7,49.7,49.7
			c27.4,0,49.7-22.3,49.7-49.7C533.2,69.8,510.9,47.5,483.5,47.5"/>
	</g>
</g>
</svg>
